<svg height="512" viewBox="0 0 24 24" width="512" xmlns="http://www.w3.org/2000/svg"><g id="Lineal_Color" data-name="Lineal Color"><rect fill="#edebea" height="18" rx="4" width="20" x="2" y="4"/><g fill="#070e44"><path d="m19 3.1v-1.1a1 1 0 0 0 -2 0v1h-4v-1a1 1 0 0 0 -2 0v1h-4v-1a1 1 0 0 0 -2 0v1.1a5 5 0 0 0 -4 4.9v10a5 5 0 0 0 5 5h12a5 5 0 0 0 5-5v-10a5 5 0 0 0 -4-4.9zm2 14.9a3 3 0 0 1 -3 3h-12a3 3 0 0 1 -3-3v-10a3 3 0 0 1 2-2.82v.82a1 1 0 0 0 2 0v-1h4v1a1 1 0 0 0 2 0v-1h4v1a1 1 0 0 0 2 0v-.82a3 3 0 0 1 2 2.82z"/><path d="m14.5 13h-1.5v-1.5a1 1 0 0 0 -2 0v1.5h-1.5a1 1 0 0 0 0 2h1.5v1.5a1 1 0 0 0 2 0v-1.5h1.5a1 1 0 0 0 0-2z"/></g></g></svg>