<svg id="Layer_1" fill="#ffffff" enable-background="new 0 0 93.5 93.5" height="512" viewBox="0 0 93.5 93.5" width="512" xmlns="http://www.w3.org/2000/svg"><g><circle cx="47" cy="51.4" r="1.2"/><circle cx="47" cy="56.3" r="1.2"/><path d="m55.7 43.8 8-7.3c4.7-4.2 7-9.9 7.1-17.5v-6.3h3.9c.7 0 1.2-.6 1.2-1.3v-5.4c0-.7-.6-1.2-1.3-1.2h-55.4c-.7 0-1.2.6-1.2 1.2v5.4c0 .7.6 1.2 1.2 1.2h3.9v6.4c.1 7.5 2.4 13.3 7.1 17.5l8 7.3c1.7 1.5 2.4 4.4-.1 6.7l-7.9 7.2c-4.7 4.2-7 9.9-7.1 17.5v5.5h-3.9c-.7 0-1.2.6-1.2 1.2v5.4c0 .7.6 1.2 1.2 1.2h55.6c.7 0 1.3-.5 1.3-1.2v-5.3c0-.7-.6-1.2-1.3-1.2h-3.9v-5.6c-.1-7.5-2.4-13.3-7.1-17.5l-7.9-7.2c-1-1-1.8-2-1.9-3.4 0-1.3.7-2.5 1.7-3.3zm-35.3-36.6h53.1v2.9h-53.1zm53.1 78.9h-53.1l.1-2.9h53zm-22.1-39c0 2.1 1 3.7 2.7 5.2l7.9 7.2c4.2 3.8 6.2 8.8 6.3 15.7v5.5h-42.7v-5.6c.1-6.9 2.1-11.9 6.3-15.7l7.9-7.2c2.9-2.8 3.9-6.8.1-10.4l-8-7.3c-4.2-3.8-6.2-8.8-6.3-15.7v-6.3h42.7v6.5c-.1 6.9-2.1 11.9-6.3 15.7-.9.8-8 7.4-8 7.4-1.7 1.4-2.5 3-2.6 5z"/><path d="m63.4 29c.3-.5.3-1.1-.1-1.5s-1-.5-1.5-.2c-4.9 2.5-6.8 3.5-14.4 1-4.9-1.6-10.2-1.2-14.9 1-.8.4-.9 1.4-.4 2 .5.5 11.4 10.9 11.5 11 .8.9 1.3 2.1 1.4 3.3.1.9.9 1.7 2.1 1.7 0 0 1.3.1 1.9-1.2.4-.9 1-3.2 2.3-4.5.2-.1 8.1-7.7 9.1-8.7 1.2-1.2 2.2-2.5 3-3.9zm-13.9 10.6c-1.2 1-2 2.3-2.5 3.8-.3-1.1-.9-2.2-1.8-3-.4-.4-7.1-6.8-10-9.6 3.7-1.3 7.7-1.4 11.4-.2 5.4 1.7 8.4 1.9 11.3 1-1.6 1.5-8.4 8-8.4 8z"/><path d="m29.8 76.8c0 .7.6 1.2 1.2 1.2h31.9c.7 0 1.2-.6 1.2-1.3-.2-9.2-7.6-16.6-16.8-16.8-9.4-.2-17.3 7.3-17.5 16.9zm31.8-1.3h-29.3c.6-7.1 6.3-12.8 13.4-13.4 8.1-.7 15.2 5.3 15.9 13.4z"/></g></svg>