<svg enable-background="new 0 0 64 64" height="512" viewBox="0 0 64 64" width="512" xmlns="http://www.w3.org/2000/svg"><g id="Time_Management"><g><path d="m46 5v52c0 2.76-2.24 5-5 5h-25v-12c0-1.1-.9-2-2-2h-12v-43c0-2.76 2.24-5 5-5h34c2.76 0 5 2.24 5 5z" fill="#aad7fd"/><path d="m14 48c1.105 0 2 .895 2 2v12c-.53 0-1.04-.21-1.41-.59l-12-12c-.38-.37-.59-.88-.59-1.41z" fill="#48a1ff"/><path d="m39 16h-15c-1.104 0-2-.896-2-2s.896-2 2-2h15c1.104 0 2 .896 2 2s-.896 2-2 2z" fill="#f2f2fd"/><path d="m29 28h-5c-1.104 0-2-.896-2-2s.896-2 2-2h5c1.104 0 2 .896 2 2s-.896 2-2 2z" fill="#f2f2fd"/><g fill="#2c39fd"><path d="m12 40.031c-.512 0-1.024-.195-1.414-.586l-2-2c-.781-.781-.781-2.047 0-2.828.78-.781 2.048-.781 2.828 0l.586.586 2.586-2.585c.78-.781 2.048-.781 2.828 0 .781.781.781 2.047 0 2.828l-4 4c-.39.39-.902.585-1.414.585z"/><path d="m12 28.031c-.512 0-1.024-.195-1.414-.586l-2-2c-.781-.781-.781-2.047 0-2.828.78-.781 2.048-.781 2.828 0l.586.586 2.586-2.585c.78-.781 2.048-.781 2.828 0 .781.781.781 2.047 0 2.828l-4 4c-.39.39-.902.585-1.414.585z"/><path d="m12 16.031c-.512 0-1.024-.195-1.414-.586l-2-2c-.781-.781-.781-2.047 0-2.828.78-.781 2.048-.781 2.828 0l.586.586 2.586-2.585c.78-.781 2.048-.781 2.828 0 .781.781.781 2.047 0 2.828l-4 4c-.39.39-.902.585-1.414.585z"/><circle cx="44" cy="45" r="19"/></g><path d="m39 53c-.512 0-1.024-.195-1.414-.586-.781-.781-.781-2.047 0-2.828l4.414-4.415v-9.171c0-1.104.896-2 2-2s2 .896 2 2v10c0 .53-.211 1.039-.586 1.414l-5 5c-.39.391-.902.586-1.414.586z" fill="#f2f2fd"/></g></g></svg>