<svg xmlns="http://www.w3.org/2000/svg" version="1.1" xmlns:xlink="http://www.w3.org/1999/xlink" width="512" height="512" x="0" y="0" viewBox="0 0 24 24" style="enable-background:new 0 0 512 512" xml:space="preserve" class=""><g><path d="M12 22c-2.7 0-5.2-1-7.1-2.9-.4-.4-.4-1 0-1.4s1-.4 1.4 0C7.9 19.2 9.9 20 12 20c4.4 0 8-3.6 8-8s-3.6-8-8-8c-2.1 0-4.1.8-5.7 2.3-.8.8-2.5 2.8-2.6 2.9-.4.4-1 .5-1.4.1s-.5-1-.1-1.4C2.3 7.8 4 5.8 4.9 5 6.8 3 9.3 2 12 2c5.5 0 10 4.5 10 10s-4.5 10-10 10z" fill="#ffffff" opacity="1" data-original="#000000" class=""></path><path d="M7 9.5H3c-.6 0-1-.4-1-1v-4c0-.6.4-1 1-1s1 .4 1 1v3h3c.6 0 1 .4 1 1s-.4 1-1 1z" fill="#ffffff" opacity="1" data-original="#000000" class=""></path></g></svg>